<svg width="25" height="25" viewBox="0 0 25 25" fill="none" xmlns="http://www.w3.org/2000/svg">
<g id="Eye-Show-Visible">
<path id="Vector" d="M12.5 5.42892C15.0962 5.42892 17.4374 6.93805 19.2006 8.55488C20.3669 9.62425 20.95 10.1589 21.2055 11.6865C21.2612 12.0195 21.2612 12.8384 21.2055 13.1713C20.95 14.6989 20.3669 15.2336 19.2006 16.303C17.4374 17.9198 15.0962 19.4289 12.5 19.4289C9.9038 19.4289 7.56262 17.9198 5.79936 16.303C4.63313 15.2336 4.05001 14.6989 3.79449 13.1713C3.7388 12.8384 3.7388 12.0195 3.79449 11.6865C4.05001 10.1589 4.63313 9.62425 5.79936 8.55488C7.56262 6.93805 9.9038 5.42892 12.5 5.42892Z" stroke="white" stroke-width="2.25" stroke-linejoin="round"/>
<path id="Vector_2" d="M15.5 12.4289C15.5 14.0858 14.1569 15.4289 12.5 15.4289C10.8431 15.4289 9.5 14.0858 9.5 12.4289C9.5 10.7721 10.8431 9.42892 12.5 9.42892C14.1569 9.42892 15.5 10.7721 15.5 12.4289Z" stroke="white" stroke-width="2.25" stroke-linejoin="round"/>
</g>
</svg>
