<svg width="25" height="25" viewBox="0 0 25 25" fill="none" xmlns="http://www.w3.org/2000/svg">
<g id="Graduation Cap">
<path id="Vector" d="M19.0874 9.59591V14.9221C19.0874 15.8838 19.0874 16.3647 18.9091 16.7854C18.8504 16.9239 18.778 17.0562 18.693 17.1802C18.4345 17.5571 18.0294 17.8161 17.2192 18.3342L15.1113 19.682C14.1722 20.2825 13.7026 20.5828 13.185 20.6419C13.0152 20.6613 12.8438 20.6613 12.6741 20.6419C12.1564 20.5828 11.6868 20.2825 10.7477 19.682L8.63984 18.3342C7.82962 17.8161 7.42451 17.5571 7.16605 17.1802C7.08098 17.0562 7.00856 16.9239 6.94989 16.7854C6.77161 16.3647 6.77161 15.8838 6.77161 14.9221V9.59591M21.9295 8.21997L14.623 4.85666C13.8837 4.51636 13.5141 4.34622 13.1234 4.31242C12.9944 4.30126 12.8646 4.30126 12.7356 4.31242C12.3449 4.34622 11.9753 4.51636 11.236 4.85666L3.9295 8.21997L11.1647 11.7227C11.9338 12.0951 12.3183 12.2812 12.7269 12.3182C12.8617 12.3304 12.9973 12.3304 13.1321 12.3182C13.5407 12.2812 13.9252 12.0951 14.6943 11.7227L21.9295 8.21997ZM21.9295 8.21997V16.8021C21.9295 17.6835 21.9295 18.1242 21.7765 18.5177C21.726 18.6474 21.6637 18.7722 21.5901 18.8904C21.3672 19.2488 21.0146 19.5133 20.3095 20.0421L19.6795 20.5146" stroke="#1C1D1D" stroke-width="2.25" stroke-linecap="round" stroke-linejoin="round"/>
</g>
</svg>
