<svg width="25" height="25" viewBox="0 0 25 25" fill="none" xmlns="http://www.w3.org/2000/svg">
<g id="Home">
<path id="Vector" d="M5.94189 8.32606C6.92724 7.3407 7.41992 6.84802 7.89746 6.50107C10.5261 4.59124 14.0856 4.59124 16.7142 6.50107C17.1918 6.84802 17.6845 7.3407 18.6698 8.32606V8.32606C19.1016 8.75786 19.3175 8.97376 19.5089 9.19784C20.5375 10.4022 21.1585 11.9013 21.2827 13.4803C21.3058 13.774 21.3058 14.0794 21.3058 14.69V18.9621C21.3058 20.619 19.9627 21.9621 18.3058 21.9621V21.9621C16.649 21.9621 15.3058 20.619 15.3058 18.9621V17.9621C15.3058 16.3052 13.9627 14.9621 12.3058 14.9621V14.9621C10.649 14.9621 9.30585 16.3052 9.30585 17.9621V18.9621C9.30585 20.619 7.9627 21.9621 6.30585 21.9621V21.9621C4.64899 21.9621 3.30585 20.619 3.30585 18.9621V14.69C3.30585 14.0794 3.30585 13.774 3.32897 13.4803C3.45323 11.9013 4.07418 10.4022 5.1028 9.19784C5.29418 8.97376 5.51008 8.75786 5.94189 8.32606V8.32606Z" stroke="#1C1D1D" stroke-width="2.25" stroke-linejoin="round"/>
</g>
</svg>
