<svg width="25" height="25" viewBox="0 0 25 25" fill="none" xmlns="http://www.w3.org/2000/svg">
<g id="Bar Chart Analysis">
<path id="Vector" d="M8.9295 18.7313V15.7313M12.9295 13.7313V18.7313M16.9295 18.7313V11.7313M7.4295 12.2313L8.89411 10.5226C9.84497 9.41325 11.3132 8.89197 12.7507 9.15333V9.15333C14.7416 9.5153 16.7833 8.87752 18.2141 7.44671L18.4295 7.23129M12.9295 21.7313V21.7313C15.7252 21.7313 17.123 21.7313 18.2256 21.2746C19.6958 20.6656 20.8638 19.4976 21.4728 18.0274C21.9295 16.9248 21.9295 15.5269 21.9295 12.7313V12.7313C21.9295 9.93565 21.9295 8.53782 21.4728 7.4352C20.8638 5.96503 19.6958 4.79698 18.2256 4.18801C17.123 3.73129 15.7252 3.73129 12.9295 3.73129V3.73129C10.1339 3.73129 8.73604 3.73129 7.63341 4.18801C6.16324 4.79698 4.99519 5.96503 4.38623 7.4352C3.9295 8.53782 3.9295 9.93565 3.9295 12.7313V12.7313C3.9295 15.5269 3.9295 16.9248 4.38623 18.0274C4.99519 19.4976 6.16324 20.6656 7.63341 21.2746C8.73604 21.7313 10.1339 21.7313 12.9295 21.7313Z" stroke="#1C1D1D" stroke-width="2.25" stroke-linecap="round" stroke-linejoin="round"/>
</g>
</svg>
