<svg width="25" height="25" viewBox="0 0 25 25" fill="none" xmlns="http://www.w3.org/2000/svg">
<g id="Star Rating">
<path id="Vector" d="M10.0927 6.41746C11.0316 3.73348 14.8552 3.813 15.7941 6.49699V6.49699C16.1953 7.64375 17.2841 8.43045 18.499 8.43045H18.7434C21.4492 8.43045 22.5608 11.9032 20.358 13.4744V13.4744C19.3513 14.1924 18.9431 15.4984 19.3514 16.6655V16.6655C20.2566 19.2531 17.3555 21.5393 15.0831 20.0058L14.6253 19.6969C13.6005 19.0053 12.2585 19.0053 11.2337 19.6969L10.7961 19.9922C8.51726 21.53 5.60784 19.2375 6.51565 16.6425V16.6425C6.92036 15.4856 6.52527 14.1909 5.53732 13.4655V13.4655C3.36612 11.8714 4.49366 8.43045 7.18723 8.43045H7.36817C8.5782 8.43045 9.65605 7.66562 10.0556 6.52346L10.0927 6.41746Z" stroke="#1C1D1D" stroke-width="2.25" stroke-linejoin="round"/>
</g>
</svg>
