<svg width="25" height="25" viewBox="0 0 25 25" fill="none" xmlns="http://www.w3.org/2000/svg">
<g id="Calendar">
<path id="Vector" d="M9.92951 5.15418V5.15418C6.6158 5.15418 3.9295 7.84047 3.9295 11.1542V13.1542C3.9295 13.6184 3.9295 13.8506 3.93978 14.0467C4.14068 17.8801 7.20361 20.943 11.037 21.1439C11.2331 21.1542 11.4652 21.1542 11.9295 21.1542H13.9295C14.3938 21.1542 14.6259 21.1542 14.822 21.1439C18.6554 20.943 21.7183 17.8801 21.9192 14.0467C21.9295 13.8506 21.9295 13.6184 21.9295 13.1542V11.1542C21.9295 7.84047 19.2432 5.15418 15.9295 5.15418V5.15418M9.92951 5.15418V6.65418M9.92951 5.15418V3.15417M9.92951 5.15418H15.9295M15.9295 5.15418V3.15417M15.9295 5.15418V6.65418M12.9295 17.1542V10.1542M8.4295 17.1542V10.1542M17.4295 17.1542V10.1542" stroke="#1C1D1D" stroke-width="2.25" stroke-linecap="round" stroke-linejoin="round"/>
</g>
</svg>
