<svg width="17" height="17" viewBox="0 0 17 17" fill="none" xmlns="http://www.w3.org/2000/svg">
<g id="Verification Icon">
<path id="Vector" fill-rule="evenodd" clip-rule="evenodd" d="M2.125 4.46229C2.125 3.90244 2.45471 3.3951 2.9663 3.16772L7.92462 0.964021C8.29097 0.801218 8.70903 0.801218 9.07538 0.964021L14.0337 3.16772C14.5453 3.3951 14.875 3.90244 14.875 4.46229V9.20833C14.875 13.3709 10.382 15.5366 8.93988 16.1245C8.65605 16.2402 8.34402 16.2402 8.06012 16.1245C6.61804 15.5366 2.125 13.3709 2.125 9.20833V4.46229ZM11.6875 6.0208C11.895 6.22826 11.895 6.56464 11.6875 6.7721L8.1673 10.2923C7.95983 10.4998 7.62351 10.4998 7.41604 10.2923L5.66667 8.54292C5.4592 8.33545 5.4592 7.99913 5.66667 7.79166C5.87413 7.58419 6.2105 7.58419 6.41797 7.79166L7.79167 9.16533L10.9362 6.0208C11.1436 5.81334 11.48 5.81334 11.6875 6.0208Z" fill="#3DA864"/>
</g>
</svg>
